<svg xmlns="http://www.w3.org/2000/svg" version="1.1" width="700" height="890" data-reactroot=""><style>
            text {
              font-family: &quot;Times New Roman&quot;, Times, serif;
            }
          </style><g transform="translate(0 0)"><rect width="700" height="140" fill="#212121"></rect><text x="20" y="80" font-size="70" fill="#2b4158">Fail</text><text x="20" y="115" font-size="18" fill="#2b4158" opacity="0.5">PRIMARY<!-- --> <!-- -->#212121<!-- --> <!-- -->#2B4158</text><rect x="350" y="10" width="340" height="120" fill="#333333"></rect><text x="370" y="80" font-size="70" fill="#2b4158">Fail</text><text x="370" y="115" font-size="18" fill="#2b4158" opacity="0.5">PRIMARY<!-- --> <!-- -->#333333<!-- --> <!-- -->#2B4158</text></g><g transform="translate(0 150)"><rect width="700" height="140" fill="#212121"></rect><text x="20" y="80" font-size="70" fill="#c14473">AA Large</text><text x="20" y="115" font-size="18" fill="#c14473" opacity="0.5">SECONDARY<!-- --> <!-- -->#212121<!-- --> <!-- -->#C14473</text><rect x="350" y="10" width="340" height="120" fill="#333333"></rect><text x="370" y="80" font-size="70" fill="#c14473">Fail</text><text x="370" y="115" font-size="18" fill="#c14473" opacity="0.5">SECONDARY<!-- --> <!-- -->#333333<!-- --> <!-- -->#C14473</text></g><g transform="translate(0 300)"><rect width="700" height="140" fill="#212121"></rect><text x="20" y="80" font-size="70" fill="#f44336">AA Large</text><text x="20" y="115" font-size="18" fill="#f44336" opacity="0.5">ERROR<!-- --> <!-- -->#212121<!-- --> <!-- -->#F44336</text><rect x="350" y="10" width="340" height="120" fill="#333333"></rect><text x="370" y="80" font-size="70" fill="#f44336">AA Large</text><text x="370" y="115" font-size="18" fill="#f44336" opacity="0.5">ERROR<!-- --> <!-- -->#333333<!-- --> <!-- -->#F44336</text></g><g transform="translate(0 450)"><rect width="700" height="140" fill="#212121"></rect><text x="20" y="80" font-size="70" fill="#ff9800">AAA</text><text x="20" y="115" font-size="18" fill="#ff9800" opacity="0.5">WARNING<!-- --> <!-- -->#212121<!-- --> <!-- -->#FF9800</text><rect x="350" y="10" width="340" height="120" fill="#333333"></rect><text x="370" y="80" font-size="70" fill="#ff9800">AA</text><text x="370" y="115" font-size="18" fill="#ff9800" opacity="0.5">WARNING<!-- --> <!-- -->#333333<!-- --> <!-- -->#FF9800</text></g><g transform="translate(0 600)"><rect width="700" height="140" fill="#212121"></rect><text x="20" y="80" font-size="70" fill="#2196f3">AA</text><text x="20" y="115" font-size="18" fill="#2196f3" opacity="0.5">INFO<!-- --> <!-- -->#212121<!-- --> <!-- -->#2196F3</text><rect x="350" y="10" width="340" height="120" fill="#333333"></rect><text x="370" y="80" font-size="70" fill="#2196f3">AA Large</text><text x="370" y="115" font-size="18" fill="#2196f3" opacity="0.5">INFO<!-- --> <!-- -->#333333<!-- --> <!-- -->#2196F3</text></g><g transform="translate(0 750)"><rect width="700" height="140" fill="#212121"></rect><text x="20" y="80" font-size="70" fill="#4caf50">AA</text><text x="20" y="115" font-size="18" fill="#4caf50" opacity="0.5">SUCCESS<!-- --> <!-- -->#212121<!-- --> <!-- -->#4CAF50</text><rect x="350" y="10" width="340" height="120" fill="#333333"></rect><text x="370" y="80" font-size="70" fill="#4caf50">AA</text><text x="370" y="115" font-size="18" fill="#4caf50" opacity="0.5">SUCCESS<!-- --> <!-- -->#333333<!-- --> <!-- -->#4CAF50</text></g></svg>